<?xml version="1.0" encoding="utf-8"?>
<!-- Generator: Adobe Illustrator 23.0.1, SVG Export Plug-In . SVG Version: 6.00 Build 0)  -->
<svg version="1.1" id="图层_1" xmlns="http://www.w3.org/2000/svg" xmlns:xlink="http://www.w3.org/1999/xlink" x="0px" y="0px"
	 viewBox="0 0 226.8 226.8" style="enable-background:new 0 0 226.8 226.8;" xml:space="preserve">
<style type="text/css">
	.st0{fill:#3365FF;}
	.st1{opacity:0.4;fill:#3365FF;}
</style>
<g>
	<path class="st0" d="M166.5,48.6c-15.8-13.1-30.6-21-53.1-21c-22.6,0-37.4,8-53.4,21.3c-6.4,5.4-12,11.5-16.5,18.3
		c-8.6,12.7-13.7,27.7-14.2,43.9c0,0.3,0,0.7,0,1v2.7c0,0.3,0,0.6,0,1.1c0.4,12.5,3.5,24.3,9.4,35.8c5.2,9.9,12.3,18.8,21.6,26.5
		c15.8,13.1,30.6,21,53.1,21c22.5,0,37.3-7.9,53.5-21.3c19.5-16.3,30.7-39.8,30.7-64.5C197.6,88.7,186.4,65.2,166.5,48.6z
		 M158.5,51.6c-1.8,1.3-3.6,2.6-5.4,3.8c-3-5-6.6-9.4-10.6-13.2C148.1,44.8,153.5,47.9,158.5,51.6z M113.4,34.8
		c15.6,0,24,9.2,33.2,24.2c-11.9,6.1-19.4,9.3-33.1,9.3c-13.7,0-21.2-3.2-33.2-9.4C89.4,44,97.8,34.8,113.4,34.8z M84.3,42.2
		c-4,3.8-7.5,8.2-10.6,13.1c-1.9-1.2-3.7-2.4-5.4-3.7C73.2,47.9,78.6,44.8,84.3,42.2z M68.3,175.1c1.8-1.3,3.6-2.6,5.5-3.8
		c3,5,6.6,9.4,10.6,13.2C78.6,182,73.2,178.8,68.3,175.1z M142.4,184.5c4-3.8,7.5-8.2,10.6-13.2c1.9,1.2,3.7,2.4,5.4,3.7
		C153.5,178.8,148.1,182,142.4,184.5z M179.5,151.7c-0.2,0.4-0.5,0.8-0.7,1.2c-0.2,0.3-0.3,0.5-0.5,0.7c-0.2,0.3-0.3,0.5-0.4,0.7
		l-0.9,1.4c-3.6,5.3-7.8,10.2-12.6,14.5c-2.5-1.9-5.1-3.7-7.8-5.4c2.2-4.6,4.1-9.6,5.4-14.9c0.5-1.9-0.7-3.9-2.8-4.3
		c-0.3-0.1-0.6-0.1-0.9-0.1c-1.7,0-3.3,1.1-3.7,2.7c-1.2,4.6-2.7,8.9-4.7,13l-3.4,6.4c-9.2,15-17.6,24.2-33.2,24.2
		c-15.6,0-23.9-9.2-33.2-24.2l-3.4-6.4c-1.9-4-3.5-8.4-4.6-13c-0.4-1.6-2-2.7-3.7-2.7c-0.3,0-0.6,0-0.9,0.1c-2,0.5-3.3,2.4-2.8,4.3
		c1.4,5.3,3.2,10.3,5.4,14.9c-2.7,1.7-5.3,3.4-7.8,5.4c-3.4-3-6.4-6.3-9.4-10.1c-0.3-0.4-0.6-0.7-0.8-1.1c-0.2-0.2-0.3-0.4-0.4-0.5
		l-0.6-0.9c-0.2-0.3-0.4-0.6-0.6-0.8c-0.2-0.2-0.3-0.4-0.4-0.6c-0.3-0.4-0.5-0.8-0.8-1.1c-0.1-0.1-0.2-0.2-0.2-0.4
		c-0.3-0.5-0.6-1-1-1.5c-6.8-11-10.7-23.4-11.3-36.2h10c2.1,0,3.8-1.6,3.8-3.6c0-2-1.7-3.6-3.8-3.6h-10c0.5-11.5,3.7-22.6,9.2-32.6
		c0.1-0.2,0.2-0.3,0.3-0.5c0.2-0.3,0.4-0.7,0.6-1.1l0.5-0.9c0.1-0.2,0.2-0.4,0.3-0.5c0.3-0.5,0.6-0.9,0.9-1.4
		c3.8-6,8.5-11.4,13.8-16.2c2.5,1.9,5.1,3.7,7.8,5.4c-2.2,4.6-4,9.6-5.4,14.9c-0.5,1.9,0.7,3.9,2.8,4.3c0.3,0.1,0.6,0.1,0.9,0.1
		c1.7,0,3.3-1.1,3.7-2.7c1.2-4.6,2.7-8.9,4.6-12.9c12.9,6.6,21.7,10.1,36.6,10.1c14.9,0,23.6-3.5,36.6-10.1c1.9,4,3.4,8.3,4.6,12.9
		c0.4,1.6,2,2.7,3.7,2.7c0.3,0,0.6,0,0.9-0.1c2-0.5,3.3-2.4,2.8-4.3c-1.4-5.3-3.2-10.3-5.4-14.9c2.7-1.6,5.3-3.4,7.7-5.4
		c3.3,3,6.4,6.3,9.4,10.1c0.3,0.3,0.5,0.7,0.8,1.1c0.2,0.2,0.3,0.4,0.4,0.6c0.2,0.3,0.4,0.6,0.6,0.8c0.2,0.3,0.4,0.6,0.6,0.9
		c0.2,0.2,0.3,0.4,0.4,0.6c0.3,0.4,0.5,0.8,1,1.5c0.3,0.5,0.6,1,1,1.6c6.8,11,10.7,23.4,11.3,36.2h-10c-2.1,0-3.8,1.6-3.8,3.6
		c0,2,1.7,3.6,3.8,3.6h10c-0.6,12.2-4.1,23.9-10.2,34.4C179.6,151.5,179.5,151.6,179.5,151.7z"/>
	<g>
		<path class="st0" d="M170.5,99.8v-0.2c0-8.1-6.6-14.6-14.7-14.6h-0.2l-0.2,0c-0.3,0-30.8,4-42.2,4c-11.4,0-41.8-4-42.1-4l-0.2,0
			h-0.2c-8.1,0-14.6,6.6-14.6,14.6v1.1c5.6,2,9.6,7.3,9.6,13.6c0,6.3-4,11.6-9.6,13.6c0.3,7.8,6.8,14.1,14.6,14.1h16.8
			c4.6,0,8.9-2.5,11.2-6.5c2.4-4.2,6.8-9.3,14.5-9.3c7.7,0,12.2,5.1,14.6,9.3c2.3,4,6.5,6.5,11.1,6.5h16.8c8.1,0,14.6-6.6,14.6-14.6
			V127c-5.6-2-9.6-7.3-9.6-13.6S164.9,101.8,170.5,99.8z M100,115.2c0,5-4.1,9.1-9.1,9.1h-9.7c-5,0-9.1-4.1-9.1-9.1v-3.6
			c0-5,4.1-9.1,9.1-9.1h9.7c5,0,9.1,4.1,9.1,9.1V115.2z M154.7,115.2c0,5-4.1,9.1-9.1,9.1h-9.7c-5,0-9.1-4.1-9.1-9.1v-3.6
			c0-5,4.1-9.1,9.1-9.1h9.7c5,0,9.1,4.1,9.1,9.1V115.2z"/>
		<polygon class="st1" points="86.8,101.2 93.1,125.7 73.2,128.7 66.9,103.1 		"/>
		<polygon class="st1" points="141.5,101.2 147.8,125.7 127.9,128.7 121.6,103.1 		"/>
	</g>
</g>
</svg>
